<svg xmlns="http://www.w3.org/2000/svg" xmlns:xlink="http://www.w3.org/1999/xlink" version="1.1" viewBox="0 0 16 18" fill='#ffffff' ><g><path d="M8.5,15C4.916,15,2,12.084,2,8.5S4.916,2,8.5,2S15,4.916,15,8.5S12.084,15,8.5,15z M8.5,3C5.467,3,3,5.467,3,8.5   C3,11.532,5.467,14,8.5,14c3.032,0,5.5-2.468,5.5-5.5C14,5.467,11.532,3,8.5,3z"/><path d="M11.5,9h-6C5.224,9,5,8.776,5,8.5S5.224,8,5.5,8h6C11.776,8,12,8.224,12,8.5S11.776,9,11.5,9z"/><path d="M8.5,12C8.224,12,8,11.776,8,11.5v-6C8,5.224,8.224,5,8.5,5S9,5.224,9,5.5v6C9,11.776,8.776,12,8.5,12z"/></g></svg>